<svg id="_x33_0" enable-background="new 0 0 64 64" height="49px" fill="#32A887" viewBox="0 0 64 64" width="50px" xmlns="http://www.w3.org/2000/svg"><g><path d="m20 17c0-1.654-1.346-3-3-3s-3 1.346-3 3 1.346 3 3 3 3-1.346 3-3zm-3 1c-.551 0-1-.448-1-1s.449-1 1-1 1 .448 1 1-.449 1-1 1z"/><path d="m31 19.365c0 1.569-.371 3.141-1.073 4.544l-.822 1.644 1.789.895.822-1.644c.84-1.68 1.284-3.561 1.284-5.438 0-3.716-1.664-7.177-4.565-9.498l-.811-.648-1.249 1.563.811.648c2.424 1.937 3.814 4.83 3.814 7.934z"/><path d="m35 17.792c0 .734-.073 1.474-.217 2.196l-.763 3.815 1.961.393.763-3.816c.17-.852.256-1.723.256-2.588 0-5.69-3.627-10.722-9.024-12.521l-.659-.22-.633 1.896.659.22c4.58 1.528 7.657 5.797 7.657 10.625z"/><path d="m21.612 27.278c-1.054 1.582-1.612 3.424-1.612 5.326 0 1.034.166 2.056.493 3.036l.559 1.676 1.897-.633-.559-1.676c-.259-.776-.39-1.584-.39-2.403 0-1.506.441-2.964 1.276-4.217l.556-.833-1.664-1.109z"/><path d="m63 42.006c0-3.395-1.447-6.644-3.971-8.915l-3.942-3.549c-.66-.593-1.179-1.314-1.535-2.108 3.293-1.631 5.448-5.031 5.448-8.755v-8.959l-7.872 1.968c-3.608.901-6.128 4.128-6.128 7.851 0 1.11.262 2.222.759 3.215l1.264 2.528c.116 3.328 1.569 6.488 4.052 8.72l3.941 3.548c1.261 1.135 1.984 2.759 1.984 4.456 0 3.035-2.271 5.544-5.204 5.935-.458-2.79-1.716-5.393-3.676-7.492l-7.76-8.314c-.113-.121-.238-.229-.356-.344.011-1.741.36-3.436 1.047-5.038l.526-1.229c.944-2.202 1.423-4.534 1.423-6.93 0-9.701-7.893-17.594-17.594-17.594h-.448c-6.735 0-12.276 5.035-12.937 11.788-.809.919-1.438 2.002-1.801 3.212h-1.22c-2.206 0-4 1.794-4 4v2c0 1.474.81 2.75 2 3.444v.556c0 2.206 1.794 4 4 4h3.339c-.216.842-.339 1.714-.339 2.605 0 2.053.629 4.027 1.717 5.71l-9.56 1.366c-1.8.258-3.157 1.823-3.157 3.641 0 2.029 1.65 3.678 3.678 3.678h.507c.024.066.041.134.069.198-3.574.8-6.254 3.991-6.254 7.802 0 4.411 3.589 8 8 8 2.905 0 5.445-1.561 6.847-3.884.815 1.136 2.138 1.884 3.64 1.884h2.513 5.286c.649 0 1.249-.215 1.744-.57.674.367 1.431.57 2.206.57h14.07c1.383 0 2.671-.619 3.534-1.698 1.258-1.573 2.165-3.396 2.677-5.328 6.375-.27 11.483-5.527 11.483-11.968zm-38.042-39.006h.448c8.599 0 15.594 6.995 15.594 15.594 0 2.124-.424 4.191-1.261 6.143l-.527 1.229c-.6 1.402-.979 2.865-1.133 4.366-1.488-.86-3.19-1.332-4.933-1.332-1.411 0-2.774.312-4.018.871l-.264-.163c-1.167-.778-1.864-2.08-1.864-3.483 0-.646.153-1.294.442-1.872l.608-1.216c.622-1.243.95-2.636.95-4.025v-.112h-2v.111c0 1.081-.255 2.164-.739 3.131l-.608 1.216c-.427.855-.653 1.811-.653 2.767 0 1.848.822 3.574 2.243 4.756-1.482 1.108-2.663 2.624-3.338 4.423-.583 1.558-.999 3.182-1.234 4.829l-.158 1.109-2.372-1.423c-2.555-1.533-4.141-4.335-4.141-7.314 0-3.095 1.681-5.95 4.386-7.454l1.791-.995c1.741-.967 2.823-2.807 2.823-4.854 0-1.051-.308-2.067-.891-2.941l-.822-1.233.399-.398c.847-.85 1.314-1.976 1.314-3.242 0-1.199-.467-2.327-1.316-3.174s-1.979-1.314-3.26-1.314c-1.883 0-3.547 1.2-4.142 2.987l-.056.168c-.644.175-1.25.43-1.823.738 1.342-4.62 5.561-7.893 10.555-7.893zm-10.789 48.968h-2.795l-.926-2.784c1.581.394 2.914 1.414 3.721 2.784zm-5.169-.8.931 2.8h3.335l-2.743 2.315.924 2.991-2.447-1.87-2.447 1.87.924-2.991-2.743-2.315h3.335zm4.876-2.496c.854-.292 1.639-.772 2.295-1.43l.293-.292 5.342-.669-.534 3.741c-.108.755-.625 1.374-1.348 1.615l-1.857.619c-.495.165-.941.415-1.336.723-.454-1.735-1.474-3.24-2.855-4.307zm-2.876-20.672c-1.103 0-2-.897-2-2h4v-2h-4c-1.103 0-2-.897-2-2v-2c0-1.103.897-2 2-2h2.82l.161-.804c.528-2.641 2.575-4.688 5.216-5.216l.57-.114.414-1.248c.321-.968 1.223-1.618 2.32-1.618.67 0 1.298.259 1.77.729.47.47.729 1.094.729 1.827 0 .663-.259 1.288-.729 1.758l-1.558 1.559 1.731 2.597c.364.545.556 1.177.556 1.882 0 1.271-.688 2.442-1.794 3.057l-1.791.995c-1.917 1.065-3.398 2.691-4.328 4.597h-4.087zm-6 15.322c0-.829.619-1.543 1.44-1.66l10.746-1.536c.579.568 1.216 1.081 1.924 1.506l3.095 1.857-.106.74-6.564.82-.779.778c-.754.757-1.758 1.173-2.827 1.173h-1.929c-.551 0-1-.448-1-1s.449-1 1-1h2v-2h-2c-1.302 0-2.402.839-2.816 2h-.506c-.926 0-1.678-.753-1.678-1.678zm2.552 5.862-.926 2.784h-2.795c.807-1.37 2.14-2.39 3.721-2.784zm-4.546 5.942 2.169 1.831-.632 2.046c-.929-1.034-1.505-2.388-1.537-3.877zm4.754 5.743 1.24-.947 1.24.948c-.4.084-.815.13-1.24.13s-.84-.046-1.24-.131zm5.697-1.866-.632-2.046 2.169-1.831c-.032 1.489-.608 2.843-1.537 3.877zm18.943-6.804.813 1.085-1.899.316c.184-.699.384-1.416.613-2.151.146.257.295.513.473.75zm14.877 5.854c-.481.601-1.199.947-1.971.947h-14.07c-.369 0-.728-.087-1.061-.235.022-.084.052-.165.067-.252.125-.724.311-1.696.557-2.799l5.988-.998-2.787-3.717c-.645-.858-1-1.924-1-2.999 0-2.757 2.243-5 5-5h.183c.991 0 1.95.29 2.774.84l1.488.992 1.109-1.664-1.488-.992c-1.153-.77-2.496-1.176-3.883-1.176h-.183c-3.86 0-7 3.141-7 7 0 .017.004.033.004.049-1.52 3.866-2.365 7.989-2.733 10.124-.083.479-.497.827-.985.827h-5.286c-.551 0-1-.448-1-1s.449-1 1-1h1v-2h-1c-1.654 0-3 1.346-3 3 0 .341.069.663.174.968-1.222-.155-2.174-1.191-2.174-2.455 0-1.072.684-2.02 1.701-2.359l1.857-.619c1.446-.482 2.479-1.72 2.694-3.229l1.398-9.79c.215-1.504.595-2.988 1.128-4.409 1.145-3.055 4.106-5.107 7.368-5.107 2.173 0 4.27.911 5.752 2.5l7.76 8.314c2.155 2.308 3.342 5.319 3.342 8.477 0 2.811-.967 5.566-2.723 7.762zm4.614-6.098c.064-.551.109-1.106.109-1.664 0-.12-.014-.238-.017-.358 3.948-.486 7.017-3.852 7.017-7.927 0-2.264-.965-4.43-2.646-5.942l-3.941-3.548c-2.169-1.951-3.413-4.743-3.413-7.661 0-2.846.94-5.321 2.719-7.16l-1.438-1.391c-1.407 1.455-2.37 3.231-2.873 5.23-.262-.631-.408-1.312-.408-1.998 0-2.8 1.897-5.229 4.613-5.909l5.387-1.347v6.398c0 2.824-1.555 5.416-3.968 6.775-.019-.197-.032-.397-.032-.598 0-1.438.62-2.927 1.747-4.19l-1.493-1.33c-1.454 1.63-2.254 3.591-2.254 5.52 0 2.352 1.002 4.602 2.75 6.173l3.941 3.549c2.103 1.893 3.309 4.601 3.309 7.429 0 5.212-4.012 9.499-9.109 9.949z"/></g></svg>